<svg xmlns="http://www.w3.org/2000/svg" width="1147" height="204" viewBox="0 0 1147 204">
  <defs>
    <radialGradient id="iceberg-a" cx=".622%" cy="42.202%" r="566.414%" fx=".622%" fy="42.202%" gradientTransform="matrix(.18719 0 0 1 .005 0)">
      <stop offset="0%" stop-color="#C5E2FC"/>
      <stop offset="100%" stop-color="#F2F8FE"/>
    </radialGradient>
    <radialGradient id="iceberg-b" cx="4.309%" cy="4.16%" r="49.111%" fx="4.309%" fy="4.16%" gradientTransform="matrix(.94906 0 0 1 .002 0)">
      <stop offset="0%" stop-color="#C5E2FC"/>
      <stop offset="100%" stop-color="#F2F8FE"/>
    </radialGradient>
    <linearGradient id="iceberg-c" x1="31.328%" x2="86.794%" y1="64.623%" y2="165.856%">
      <stop offset=".562%" stop-color="#FFF"/>
      <stop offset="50.56%" stop-color="#EFF4FE"/>
      <stop offset="100%" stop-color="#D7E9FD"/>
    </linearGradient>
    <linearGradient id="iceberg-d" x1="6.694%" x2="79.631%" y1="93.655%" y2="34.055%">
      <stop offset="0%" stop-color="#D7E9FD"/>
      <stop offset="100%" stop-color="#9ACDFA"/>
    </linearGradient>
    <linearGradient id="iceberg-e" x1="27.52%" x2="33.07%" y1="20.34%" y2="25.79%">
      <stop offset="0%" stop-color="#D7E9FD"/>
      <stop offset="100%" stop-color="#9ACDFA"/>
    </linearGradient>
    <linearGradient id="iceberg-f" x1="41.86%" x2="60.357%" y1="42.485%" y2="71.697%">
      <stop offset="0%" stop-color="#D7E9FD"/>
      <stop offset="100%" stop-color="#9ACDFA"/>
    </linearGradient>
    <linearGradient id="iceberg-g" x1="-25.2%" x2="48.385%" y1="40.187%" y2="48.528%">
      <stop offset="0%" stop-color="#D7E9FD"/>
      <stop offset="100%" stop-color="#9ACDFA"/>
    </linearGradient>
    <linearGradient id="iceberg-h" x1="-28.29%" x2="65.925%" y1="38.334%" y2="51.884%">
      <stop offset="0%" stop-color="#D7E9FD"/>
      <stop offset="100%" stop-color="#9ACDFA"/>
    </linearGradient>
    <linearGradient id="iceberg-i" x1="104.744%" x2="4.406%" y1="51.192%" y2="51.192%">
      <stop offset="0%" stop-color="#D7E9FD"/>
      <stop offset="100%" stop-color="#9ACDFA"/>
    </linearGradient>
    <linearGradient id="iceberg-j" x1="29.304%" x2="97.608%" y1="38.588%" y2="112.238%">
      <stop offset="0%" stop-color="#D7E9FD"/>
      <stop offset="100%" stop-color="#9ACDFA"/>
    </linearGradient>
    <radialGradient id="iceberg-k" cx="83.555%" cy="41.335%" r="126.226%" fx="83.555%" fy="41.335%" gradientTransform="matrix(.84588 0 0 1 .129 0)">
      <stop offset="0%" stop-color="#C5E2FC"/>
      <stop offset="100%" stop-color="#F2F8FE"/>
    </radialGradient>
    <linearGradient id="iceberg-l" x1="49.979%" x2="49.979%" y1="60.9%" y2="142.12%">
      <stop offset="0%" stop-color="#FFF"/>
      <stop offset="100%" stop-color="#D7E9FD"/>
    </linearGradient>
    <radialGradient id="iceberg-m" cx="68.719%" cy="5.637%" r="138.671%" fx="68.719%" fy="5.637%" gradientTransform="matrix(.58512 0 0 1 .285 0)">
      <stop offset="0%" stop-color="#C5E2FC"/>
      <stop offset="100%" stop-color="#F2F8FE"/>
    </radialGradient>
    <linearGradient id="iceberg-n" x1="99.925%" x2=".016%" y1="50.024%" y2="50.024%">
      <stop offset="0%" stop-color="#9ACDFA"/>
      <stop offset="100%" stop-color="#D7E9FD"/>
    </linearGradient>
    <linearGradient id="iceberg-o" x1="81.503%" x2="-7.37%" y1="38.727%" y2="73.895%">
      <stop offset="0%" stop-color="#9ACDFA"/>
      <stop offset="100%" stop-color="#D7E9FD"/>
    </linearGradient>
    <radialGradient id="iceberg-p" cx="70.408%" cy="79.836%" r="74.015%" fx="70.408%" fy="79.836%" gradientTransform="matrix(1 0 0 .78561 0 .171)">
      <stop offset="0%" stop-color="#C5E2FC"/>
      <stop offset="100%" stop-color="#F2F8FE"/>
    </radialGradient>
    <radialGradient id="iceberg-q" cx="79.504%" cy="49.787%" r="110.672%" fx="79.504%" fy="49.787%" gradientTransform="matrix(.5719 0 0 1 .34 0)">
      <stop offset="0%" stop-color="#C5E2FC"/>
      <stop offset="100%" stop-color="#F2F8FE"/>
    </radialGradient>
    <radialGradient id="iceberg-r" cx="39.872%" cy="59.016%" r="48.324%" fx="39.872%" fy="59.016%" gradientTransform="matrix(.78349 0 0 1 .086 0)">
      <stop offset="0%" stop-color="#C5E2FC"/>
      <stop offset="100%" stop-color="#F2F8FE"/>
    </radialGradient>
    <linearGradient id="iceberg-s" x1="81.178%" x2="-70.961%" y1="90.267%" y2="-10.913%">
      <stop offset="0%" stop-color="#9ACDFA"/>
      <stop offset="100%" stop-color="#D7E9FD"/>
    </linearGradient>
    <radialGradient id="iceberg-t" cx="14.414%" cy="3.716%" r="10.916%" fx="14.414%" fy="3.716%" gradientTransform="matrix(.94906 0 0 1 .007 0)">
      <stop offset="0%" stop-color="#C5E2FC"/>
      <stop offset="100%" stop-color="#F2F8FE"/>
    </radialGradient>
    <radialGradient id="iceberg-u" cx="23.894%" cy="38.972%" r="73.751%" fx="23.894%" fy="38.972%" gradientTransform="matrix(.31819 0 0 1 .163 0)">
      <stop offset="0%" stop-color="#C5E2FC"/>
      <stop offset="100%" stop-color="#F2F8FE"/>
    </radialGradient>
    <radialGradient id="iceberg-v" cx="10.671%" cy="7.905%" r="148.103%" fx="10.671%" fy="7.905%" gradientTransform="matrix(.47447 0 0 1 .056 0)">
      <stop offset="0%" stop-color="#C5E2FC"/>
      <stop offset="100%" stop-color="#F2F8FE"/>
    </radialGradient>
    <linearGradient id="iceberg-w" x1="47.928%" x2="62.494%" y1="53.999%" y2="67.806%">
      <stop offset="0%" stop-color="#D7E9FD"/>
      <stop offset="100%" stop-color="#9ACDFA"/>
    </linearGradient>
    <radialGradient id="iceberg-x" cx="91.706%" cy="30.307%" r="26.41%" fx="91.706%" fy="30.307%" gradientTransform="matrix(.81168 0 0 1 .173 0)">
      <stop offset="0%" stop-color="#C5E2FC"/>
      <stop offset="100%" stop-color="#F2F8FE"/>
    </radialGradient>
    <radialGradient id="iceberg-y" cx="100.469%" cy="41.961%" r="126.569%" fx="100.469%" fy="41.961%" gradientTransform="matrix(1 0 0 .62005 0 .16)">
      <stop offset="0%" stop-color="#C5E2FC"/>
      <stop offset="100%" stop-color="#F2F8FE"/>
    </radialGradient>
    <radialGradient id="iceberg-z" cx=".618%" cy="42.202%" r="585.182%" fx=".618%" fy="42.202%" gradientTransform="matrix(.18119 0 0 1 .005 0)">
      <stop offset="0%" stop-color="#C5E2FC"/>
      <stop offset="100%" stop-color="#F2F8FE"/>
    </radialGradient>
    <radialGradient id="iceberg-A" cx="23.85%" cy="38.972%" r="76.196%" fx="23.85%" fy="38.972%" gradientTransform="matrix(.30798 0 0 1 .165 0)">
      <stop offset="0%" stop-color="#C5E2FC"/>
      <stop offset="100%" stop-color="#F2F8FE"/>
    </radialGradient>
  </defs>
  <g fill="none" fill-rule="evenodd">
    <g fill-rule="nonzero" opacity=".98" transform="rotate(-.25 227.763 1146.416)">
      <path fill="url(#iceberg-a)" d="M1111.15068,207.978061 L819.28459,107.176015 L785.567208,95.3324328 C785.303791,95.3324328 785.040374,95.3324328 785.040374,95.3324328 C784.250122,95.3324328 783.723288,95.3324328 782.933037,95.3324328 C782.406203,95.3324328 781.879369,95.3324328 781.352535,95.3324328 C780.825701,95.3324328 780.298867,95.3324328 779.772033,95.3324328 C779.245198,95.3324328 778.718364,95.3324328 778.19153,95.3324328 C778.19153,95.3324328 778.19153,95.3324328 778.19153,95.3324328 C777.664696,95.3324328 777.137862,95.3324328 776.611028,95.3324328 C776.084194,95.3324328 775.55736,95.3324328 775.030526,95.3324328 C775.030526,95.3324328 774.767109,95.3324328 774.767109,95.3324328 C774.240275,95.3324328 773.976858,95.3324328 773.450023,95.3324328 C772.923189,95.3324328 772.396355,95.3324328 771.869521,95.3324328 C771.606104,95.3324328 771.606104,95.3324328 771.342687,95.3324328 C771.07927,95.3324328 770.552436,95.3324328 770.289019,95.3324328 C769.762185,95.3324328 769.235351,95.3324328 768.971934,95.3324328 C768.708517,95.3324328 768.708517,95.3324328 768.4451,95.3324328 C768.181683,95.3324328 767.654848,95.3324328 767.391431,95.3324328 C766.864597,95.3324328 766.337763,95.3324328 766.074346,95.0692421 C765.810929,95.0692421 765.547512,95.0692421 765.284095,95.0692421 C765.020678,95.0692421 764.757261,95.0692421 764.493844,95.0692421 C763.96701,95.0692421 763.440176,95.0692421 763.176759,94.8060514 C762.913342,94.8060514 762.649925,94.8060514 762.386507,94.5428606 C762.12309,94.5428606 761.859673,94.5428606 761.596256,94.2796699 C761.069422,94.2796699 760.806005,94.0164792 760.279171,94.0164792 C760.015754,94.0164792 759.752337,93.7532885 759.48892,93.7532885 C759.225503,93.7532885 758.962086,93.7532885 758.698669,93.4900978 C758.171835,93.4900978 757.908418,93.226907 757.381584,93.226907 C757.118167,93.226907 756.854749,92.9637163 756.591332,92.9637163 C756.327915,92.9637163 756.327915,92.9637163 756.064498,92.7005256 C755.537664,92.4373349 755.274247,92.4373349 754.747413,92.1741442 C754.483996,92.1741442 754.220579,91.9109534 753.693745,91.9109534 C753.430328,91.9109534 753.430328,91.6477627 753.166911,91.6477627 C752.640077,91.384572 752.37666,91.384572 751.849826,91.1213813 C751.586409,90.8581906 751.322991,90.8581906 750.796157,90.5949998 C750.53274,90.5949998 750.53274,90.3318091 750.269323,90.3318091 C749.742489,90.0686184 749.479072,89.8054277 748.952238,89.542237 C748.688821,89.2790462 748.161987,89.0158555 747.89857,89.0158555 C747.635153,89.0158555 747.635153,88.7526648 747.371736,88.7526648 C746.844902,88.4894741 746.581485,88.2262834 746.054651,87.9630926 C745.791233,87.6999019 745.527816,87.4367112 745.000982,87.1735205 C744.737565,87.1735205 744.737565,86.9103298 744.474148,86.9103298 C744.210731,86.647139 743.683897,86.3839483 743.42048,86.1207576 C743.157063,85.8575669 742.893646,85.5943761 742.630229,85.3311854 C742.366812,85.0679947 742.103395,84.804804 741.839978,84.5416133 C741.576561,84.2784225 741.313144,84.0152318 740.78631,83.7520411 C739.996058,82.9624689 739.205807,82.1728968 738.415556,81.1201339 C738.415556,81.1201339 738.415556,81.1201339 738.415556,81.1201339 C723.927619,80.8569432 710.229932,79.0146081 695.741994,75.3299381 C683.097976,71.9084587 665.449034,65.0655 655.439186,54.0114897 C654.122101,52.4323454 653.068433,52.1691547 652.278182,52.1691547 C652.278182,52.1691547 652.014765,52.1691547 652.014765,52.1691547 C650.961096,52.1691547 649.907428,52.9587269 648.590343,53.2219176 C648.063509,53.2219176 647.800092,52.9587269 647.273258,52.6955361 C647.009841,52.6955361 647.009841,52.6955361 646.746424,52.6955361 C646.746424,52.6955361 646.746424,52.6955361 646.483007,52.6955361 C643.322002,51.3795825 639.634163,47.168531 636.209742,44.7998145 C623.038889,35.8513301 623.038889,31.1138971 619.877885,31.3770878 C619.351051,31.3770878 618.824217,31.6402785 618.033966,31.9034693 C609.868037,35.0617579 600.385023,40.0623816 591.955678,42.1679073 C591.428844,42.1679073 591.165427,42.4310981 590.638593,42.4310981 C590.375176,42.4310981 589.848341,42.4310981 589.584924,42.6942888 C589.321507,42.6942888 589.321507,42.6942888 589.05809,42.6942888 C588.794673,42.6942888 588.267839,42.6942888 588.004422,42.6942888 C588.004422,42.6942888 587.741005,42.6942888 587.741005,42.6942888 C587.477588,42.6942888 587.214171,42.6942888 586.950754,42.6942888 C586.687337,42.6942888 586.42392,42.6942888 585.897086,42.6942888 C585.897086,42.6942888 585.633669,42.6942888 585.633669,42.6942888 C579.31166,41.9047166 573.253067,37.6936651 567.194475,33.4826136 C559.818798,27.9556085 552.179704,19.7966961 546.384529,11.1114024 C542.433273,5.05801581 540.852771,1.11015501 538.482017,1.37334573 C538.2186,1.37334573 537.955183,1.37334573 537.691766,1.63653645 C537.691766,1.63653645 537.691766,1.63653645 537.691766,1.63653645 C537.164932,1.89972717 536.374681,2.42610861 535.58443,2.95249005 C534.003927,4.53163437 532.423425,5.84758797 530.579506,6.11077869 C530.316089,6.11077869 529.789255,6.11077869 529.262421,6.11077869 C527.418501,5.58439725 524.520914,4.00525293 522.940411,4.79482509 C517.67207,7.95311373 512.40373,13.2169281 507.398806,17.9543611 C503.44755,21.9022219 498.442626,26.9028456 494.227953,30.3243249 C493.174285,31.1138971 492.384034,31.6402785 491.330366,31.9034693 C490.803532,31.9034693 490.276698,32.16666 489.749863,32.16666 C489.749863,32.16666 489.749863,32.16666 489.486446,32.16666 C488.432778,32.16666 487.37911,31.9034693 486.325442,31.3770878 C486.325442,31.3770878 486.325442,31.3770878 486.062025,31.3770878 C485.535191,31.1138971 485.008357,30.8507064 484.481523,30.5875157 C484.481523,30.5875157 484.481523,30.5875157 484.218105,30.3243249 C483.164437,29.5347528 482.110769,28.7451806 481.320518,27.6924177 C481.320518,27.6924177 481.057101,27.429227 481.057101,27.429227 C480.530267,26.9028456 480.26685,26.3764641 479.740016,26.1132734 C479.740016,26.1132734 479.476599,25.8500827 479.476599,25.8500827 C478.949765,25.3237013 478.686347,24.7973198 478.159513,24.2709384 C477.369262,23.4813662 476.842428,22.6917941 476.315594,22.1654126 C476.315594,22.1654126 476.315594,22.1654126 476.052177,21.9022219 C475.78876,21.6390312 475.525343,21.6390312 475.261926,21.3758405 C475.261926,21.3758405 474.998509,21.1126497 474.998509,21.1126497 C474.735092,20.849459 474.471675,20.849459 474.471675,20.849459 C474.471675,20.849459 474.208258,20.5862683 474.208258,20.5862683 C474.208258,20.5862683 474.208258,20.5862683 474.208258,20.5862683 C474.208258,20.5862683 473.944841,20.5862683 473.944841,20.5862683 C473.944841,20.5862683 473.944841,20.5862683 473.944841,20.5862683 C470.520419,19.2703147 467.095997,21.6390312 462.091074,25.586892 C460.773988,26.3764641 460.247154,26.9028456 460.773988,26.6396549 C451.554392,33.4826136 433.115198,52.6955361 421.524848,61.1176392 C399.92465,77.1722731 337.231393,110.071113 295.874917,115.334928 C287.445571,110.071113 234.235328,148.233768 191.561766,156.919061 C148.888204,165.867546 0.32098955,204.293391 0.32098955,204.293391 L312.206774,203.767009 L469.730168,204.556582 C469.730168,204.819772 469.466751,204.819772 469.466751,205.082963 L1101.40425,208.241252 C1104.56525,208.504442 1106.93601,209.030824 1108.25309,209.294015 C1107.98967,209.294015 1107.72626,209.030824 1107.19942,209.030824 L1105.09209,208.241252 L1111.15068,207.978061 Z"/>
      <path fill="url(#iceberg-b)" d="M1115.89218,205.872535 L1116.94585,206.135726 C1116.94585,206.135726 1116.41902,205.872535 1115.89218,205.872535 Z"/>
      <path fill="url(#iceberg-c)" d="M758.171932,140.33718 C766.074443,138.231654 773.450121,137.442082 781.616049,135.073365 C788.201475,133.23103 789.51856,131.651886 792.679565,130.599123 C794.786901,129.809551 795.577152,130.862314 797.684489,129.809551 C803.216247,126.651262 808.748005,123.492974 813.489512,118.49235 C818.231019,113.754917 822.445691,108.491103 826.923781,103.75367 C829.821369,100.858572 835.879961,95.068376 837.460463,94.8051853 C838.777548,94.5419946 839.040965,96.3843296 839.567799,96.3843296 C841.675136,97.1739018 843.255638,100.069 845.626391,101.648144 C849.577647,104.280051 852.738652,103.490479 855.109405,103.75367 C860.377746,104.280051 861.431414,100.069 865.38267,96.3843296 C867.753423,94.0156131 871.704679,91.1205152 872.49493,89.8045616 C873.548598,86.9094637 875.392518,88.7517987 877.499854,84.2775565 C880.134025,78.2241699 881.977944,73.486737 885.9292,66.906969 C886.982868,64.8014432 889.353621,59.8008195 890.407289,57.6952938 C891.197541,56.3793402 891.460958,57.432103 892.251209,57.9584845 C894.095128,59.0112474 893.831711,58.4848659 896.465882,54.2738144 C898.046384,51.9050979 899.100052,51.6419072 900.680554,50.3259536 C902.261057,48.7468093 903.314725,52.1682886 905.685478,53.2210515 C907.792815,54.0106237 908.056232,57.1689123 908.846483,59.5376288 C909.900151,62.6959174 912.270904,62.9591082 914.641658,65.8542061 C918.856331,70.8548298 919.119748,75.5922627 921.227084,74.5394998 C922.544169,74.0131184 924.651506,75.0658813 927.81251,72.6971648 C929.393012,71.6444019 931.500349,72.4339741 933.080851,72.9603555 C935.978439,73.7499277 934.92477,76.6450256 935.451605,79.8033142 C936.76869,86.646273 940.719946,94.5419946 943.354116,95.068376 C945.724869,95.5947575 947.832206,99.5426183 949.939542,100.858572 C952.310296,102.437716 953.627381,101.911335 956.788385,105.332814 C962.846977,111.649391 969.695821,114.544489 977.598332,116.386824 L1140.39007,204.029334 C1141.44374,205.082097 1142.76082,205.345288 1144.07791,205.871669 L986.817929,207.187623 L740.52299,205.082097 L740.52299,145.074613 C746.844999,143.758659 752.376757,141.916324 758.171932,140.33718 Z"/>
      <path fill="url(#iceberg-d)" d="M856.42649,160.339675 C863.802168,158.234149 869.597343,153.496716 876.182769,149.022474 C878.026688,147.969711 878.026688,144.811422 880.397442,144.02185 C881.45111,143.495468 880.397442,142.179515 884.08528,139.284417 C886.456034,137.442082 890.407289,130.599123 894.095128,125.86169 C895.148796,124.282546 893.568294,122.440211 896.202465,122.966592 C897.256133,123.229783 898.309801,121.387448 899.100052,120.597876 C900.15372,119.808304 900.680554,118.49235 901.734223,118.229159 C904.63181,116.650015 901.99764,115.597252 904.895227,112.175773 C905.948895,110.859819 905.948895,106.385577 907.002563,105.332814 C908.056232,104.280051 907.002563,102.964098 908.056232,102.437716 C908.846483,101.911335 909.636734,99.2794275 908.846483,98.7530461 C907.792815,97.9634739 908.319649,96.9107111 907.529398,96.6475203 C907.002563,96.3843296 905.948895,100.595381 905.158644,99.2794275 C904.895227,99.0162368 905.422061,98.2266647 904.895227,97.4370925 C903.314725,95.8579482 907.792815,94.0156131 906.212312,92.6996595 C904.63181,91.6468966 907.002563,88.7517987 907.792815,88.2254173 C908.846483,87.4358451 905.948895,87.1726544 905.158644,85.3303194 C904.104976,83.4879843 902.524474,87.9622266 901.734223,86.9094637 C900.680554,85.3303194 906.212312,81.6456493 903.841559,81.3824586 C901.99764,81.3824586 902.524474,80.3296957 901.470805,79.5401235 C900.417137,78.7505514 902.524474,73.7499277 901.734223,73.486737 C900.680554,73.2235462 901.207388,71.6444019 900.417137,72.4339741 C898.836635,73.7499277 894.885379,81.1192678 892.251209,84.8039379 C890.670707,86.9094637 889.617038,85.8567008 889.880455,85.5935101 C894.095128,79.5401235 891.724375,79.5401235 894.885379,75.329072 C896.202465,73.7499277 897.256133,72.9603555 897.782967,70.591639 C898.309801,69.0124947 898.309801,67.9597318 899.890303,66.3805875 C901.470805,64.5382525 898.573218,63.7486803 900.943971,60.5903917 C902.261057,59.0112474 901.99764,57.9584845 903.314725,57.1689123 C905.685478,54.8001958 901.734223,55.0633866 902.787891,54.0106237 C903.578142,52.9578608 904.368393,51.3787165 903.314725,50.0627629 C904.368393,50.5891443 905.158644,52.4314794 907.002563,53.2210515 C909.1099,54.0106237 909.373317,57.1689123 910.163568,59.5376288 C911.217236,62.6959174 913.58799,62.9591082 915.958743,65.8542061 C920.173416,70.8548298 920.436833,75.5922627 922.544169,74.5394998 C923.33442,74.0131184 924.914923,74.5394998 926.758842,74.0131184 C926.495425,74.2763091 925.968591,75.0658813 925.441757,75.0658813 C923.861254,74.8026906 923.861254,76.3818349 923.071003,76.1186442 C922.017335,75.8554534 921.753918,75.5922627 921.490501,75.8554534 C920.963667,76.3818349 921.753918,77.6977885 922.280752,77.9609792 C923.071003,78.4873606 922.280752,79.5401235 923.071003,80.066505 C924.388089,80.8560771 924.651506,79.0137421 925.705174,78.7505514 C926.758842,78.4873606 925.441757,80.066505 926.232008,80.3296957 C927.022259,80.5928864 927.285676,79.2769328 928.339344,79.0137421 C929.393012,78.7505514 930.446681,79.0137421 931.236932,77.6977885 C931.763766,76.3818349 933.080851,75.0658813 934.134519,74.2763091 C935.188188,73.7499277 934.661353,72.9603555 933.871102,72.6971648 C933.344268,72.6971648 932.554017,72.1707834 932.027183,71.9075926 C932.817434,72.1707834 933.871102,72.4339741 934.397936,72.6971648 C937.295524,73.486737 936.241856,76.3818349 936.76869,79.5401235 C938.085775,86.3830822 942.037031,94.2788039 944.671201,94.8051853 C947.041955,95.3315667 949.149291,99.2794275 951.256627,100.595381 C953.627381,102.174525 954.944466,101.648144 958.105471,105.069623 C964.164063,111.386201 971.012906,114.281299 978.915417,116.123634 L1141.70715,203.766143 C1142.76082,204.818906 1144.07791,205.082097 1145.39499,205.608478 L988.135014,206.924432 L882.504778,206.924432 C900.680554,205.082097 902.787891,196.396803 904.895227,193.501705 C907.002563,190.606607 905.685478,189.817035 910.426985,187.448319 C914.905075,185.079602 914.114824,181.921314 915.431909,178.499834 C917.275828,173.762401 917.012411,172.183257 920.436833,169.288159 C923.861254,166.393061 928.866178,161.918819 930.183264,160.339675 C931.500349,158.76053 928.866178,160.076484 926.758842,160.339675 C924.388089,160.602865 927.022259,156.918195 928.339344,155.07586 C929.919847,153.233525 932.027183,155.339051 933.871102,153.233525 C934.661353,152.443953 936.241856,150.864809 935.978439,150.075237 C934.397936,146.916948 936.76869,146.127376 936.241856,145.864185 C933.607685,144.02185 933.607685,142.179515 932.554017,141.653133 C931.500349,141.126752 930.973515,138.758036 933.080851,135.599747 C933.344268,135.073365 933.607685,132.704649 933.080851,131.915077 C932.554017,130.862314 932.554017,130.072742 932.817434,130.072742 C933.871102,129.809551 935.715022,131.388695 935.188188,129.019979 C934.92477,127.177644 935.715022,126.651262 935.978439,126.124881 C936.241856,125.598499 935.715022,124.545737 936.241856,122.966592 C937.295524,120.861067 937.295524,119.281922 936.505273,120.334685 C935.451605,122.440211 932.2906,128.230407 928.339344,131.125505 C924.651506,134.020603 919.119748,137.705273 917.539245,141.126752 C913.58799,148.496092 909.1099,150.075237 903.051308,153.496716 C899.626886,155.602242 895.412213,158.49734 894.358545,159.023721 C891.197541,160.866056 888.56337,160.602865 886.719451,164.024345 C884.875531,167.445824 873.285181,168.761778 865.646087,172.183257 C863.011917,173.23602 862.7485,174.288783 857.480159,175.604736 C851.948401,177.183881 848.523979,175.341546 852.738652,174.815164 C855.372822,174.551973 860.641163,172.183257 864.855836,170.077731 C865.909504,169.55135 869.86076,164.287535 874.33885,164.024345 C876.182769,164.024345 875.919352,161.918819 878.553522,161.129247 C879.607191,160.866056 881.187693,160.076484 881.187693,158.49734 C881.45111,156.128623 882.768195,155.339051 881.187693,155.602242 C879.607191,155.602242 874.33885,159.023721 867.490006,160.866056 C853.265486,164.550726 838.250714,164.550726 836.933629,164.550726 C834.562875,164.813917 846.416643,163.497963 856.42649,160.339675 Z" opacity=".35"/>
      <path fill="url(#iceberg-e)" d="M805.587,125.072118 C806.113834,124.808927 806.640668,124.282546 807.167503,124.019355 C806.640668,124.545737 806.113834,124.808927 805.587,125.072118 Z" opacity=".3"/>
      <path fill="url(#iceberg-f)" d="M758.171932,140.33718 C766.074443,138.231654 773.45012,137.442082 781.616049,135.073365 C788.201475,133.23103 789.51856,131.651886 792.679565,130.599123 C794.786901,129.809551 795.577152,130.862314 797.684489,129.809551 C800.318659,128.493597 802.689413,126.914453 805.323583,125.335309 C800.055242,129.28317 801.635744,131.125505 799.264991,131.651886 C796.367404,132.178268 789.255143,134.810175 786.357556,137.178891 C785.567305,137.705273 786.094139,138.758036 785.303888,139.284417 C782.933134,141.389943 787.411224,143.232278 786.094139,145.337804 C784.513636,147.70652 790.308811,143.232278 792.942982,144.811422 C795.313735,146.127376 794.786901,142.705896 800.055242,141.653133 C802.689413,141.126752 805.060166,142.442706 805.850417,141.126752 C807.694337,137.968463 809.274839,139.810798 810.855341,138.494845 C812.172426,137.178891 815.333431,137.178891 816.387099,136.9157 C819.284687,135.862938 816.913933,134.283793 822.182274,131.651886 C824.553028,130.335932 819.811521,129.019979 818.757853,126.914453 C817.440767,124.808927 820.865189,126.651262 824.026194,125.072118 C825.343279,124.282546 825.343279,122.440211 826.660364,120.334685 C827.977449,118.229159 831.401871,113.491726 831.401871,111.12301 C831.665288,106.911958 830.084786,106.911958 832.718956,105.069623 C834.299458,104.01686 835.353127,101.648144 836.406795,98.7530461 C839.040965,96.1211389 836.933629,94.8051853 837.987297,94.5419946 C839.304382,94.2788039 839.567799,96.1211389 840.094633,96.1211389 C842.20197,96.9107111 843.782472,99.805809 846.153226,101.384953 C850.104481,104.01686 853.265486,103.227288 855.636239,103.490479 C857.743576,103.75367 859.060661,103.227288 860.114329,102.174526 C858.797244,103.490479 856.689907,105.596005 854.319154,107.964721 C853.528903,108.754293 853.002069,109.280675 852.211818,110.070247 C851.158149,111.12301 850.367898,111.912582 849.31423,112.965345 C848.260562,114.018108 846.943477,115.334061 845.889808,116.386824 C844.572723,117.702778 843.519055,118.755541 842.20197,120.071494 C839.040965,122.440211 836.933629,124.282546 835.089709,125.86169 C832.718956,128.493597 831.401871,129.28317 828.240866,132.178268 C825.079862,135.073365 822.709108,136.9157 826.923781,134.546984 C831.138454,132.178268 830.61162,134.283793 829.031117,135.862938 C826.923781,138.494845 822.445691,140.33718 819.811521,141.389943 C816.913933,142.442706 815.860265,140.863561 813.752929,143.758659 C811.645592,146.653757 808.484588,145.864185 804.796749,147.443329 C801.10891,149.285664 786.357556,156.918195 779.245295,159.550102 C772.133035,161.918819 768.181779,163.234773 761.85977,164.813917 C760.279268,165.077108 752.640174,166.393061 741.049824,168.498587 L741.049824,145.074613 C746.844999,143.758659 752.376757,141.916324 758.171932,140.33718 Z" opacity=".3"/>
      <path fill="url(#iceberg-g)" d="M893.04146,65.3278246 C893.04146,67.4333504 892.251209,67.9597318 892.251209,68.749304 C892.251209,69.2756854 890.934124,70.3284483 890.934124,71.3812112 C890.934124,72.9603555 890.670707,72.6971648 889.880455,72.1707834 C889.090204,71.6444019 889.353621,70.591639 889.617038,69.0124947 C889.880455,67.4333504 888.299953,67.6965411 889.880455,65.8542061 C891.197541,64.011871 890.407289,62.4327267 892.251209,60.0640102 C893.304877,59.0112474 891.987792,57.432103 892.778043,57.6952938 C894.621962,58.7480566 894.358545,58.2216752 896.992716,54.0106237 C897.256133,53.4842422 897.782967,52.9578608 898.046384,52.6946701 C896.729299,54.8001958 895.148796,57.432103 895.148796,59.0112474 C895.148796,60.5903917 893.04146,63.2222989 893.04146,65.3278246 Z" opacity=".3"/>
      <path fill="url(#iceberg-h)" d="M884.612114,81.3824586 C883.821863,81.90884 883.295029,81.1192678 882.768195,82.6984122 C882.504778,84.0143658 883.031612,84.5407472 881.714527,85.0671286 C880.924276,85.3303194 880.397442,85.3303194 879.870608,86.646273 C879.343773,87.9622266 879.343773,87.6990358 878.290105,88.2254173 C877.499854,88.488608 877.236437,89.0149894 877.236437,90.330943 C877.236437,91.9100874 876.709603,91.9100874 875.919352,92.6996595 C875.392518,93.4892317 874.865684,94.2788039 874.33885,95.068376 C873.548598,95.8579482 872.49493,96.3843296 872.231513,97.7002832 C871.704679,99.0162368 871.704679,99.805809 872.758347,99.2794275 C873.548598,98.7530461 874.33885,98.2266647 875.129101,98.2266647 C876.182769,98.2266647 876.97302,98.4898554 877.763271,97.9634739 C878.816939,97.4370925 881.977944,95.5947575 881.45111,99.0162368 C881.45111,99.805809 880.924276,100.069 880.660859,100.33219 C879.870608,101.121763 879.870608,101.648144 879.607191,102.700907 C879.080356,104.01686 877.763271,104.01686 877.499854,105.332814 C877.236437,106.648768 877.499854,106.911958 876.709603,107.701531 C875.919352,108.227912 875.129101,108.491103 874.602267,109.543866 C874.075433,110.596628 873.812015,112.175773 872.758347,112.438963 C871.704679,112.702154 871.177845,113.754917 871.177845,115.070871 C871.441262,116.386824 870.651011,116.650015 870.651011,117.439587 C870.651011,118.755541 871.704679,119.281922 873.285181,117.965969 C874.075433,117.176396 875.392518,118.229159 876.446186,117.702778 C876.97302,117.439587 878.026688,116.123634 878.026688,115.334061 C878.026688,114.80768 877.763271,114.544489 877.763271,114.281299 C877.763271,113.491726 878.026688,113.491726 878.290105,112.965345 C878.553522,111.912582 878.026688,110.859819 878.816939,110.333438 C879.870608,109.543866 880.134025,110.333438 880.660859,111.386201 C881.714527,114.018108 882.241361,112.438963 883.295029,112.702154 C884.612114,112.965345 884.612114,109.807056 883.821863,109.017484 C883.295029,108.491103 882.768195,110.859819 882.504778,109.017484 C882.241361,108.227912 883.031612,106.385577 883.558446,105.859195 C884.08528,104.806433 884.875531,103.490479 884.875531,102.437716 C884.612114,101.121763 883.558446,103.490479 882.504778,103.490479 C881.45111,103.75367 883.031612,101.648144 883.558446,100.595381 C884.08528,99.805809 884.08528,98.4898554 884.348697,97.4370925 C884.612114,96.9107111 884.612114,96.6475203 884.612114,95.8579482 C884.612114,95.068376 884.08528,94.8051853 884.08528,94.0156131 C883.821863,92.1732781 885.402366,91.9100874 885.9292,90.5941338 C886.456034,89.5413709 885.9292,89.0149894 886.456034,87.9622266 C886.719451,87.4358451 887.773119,87.1726544 887.509702,86.3830822 C887.246285,86.1198915 885.9292,86.646273 885.9292,85.8567008 C885.9292,85.5935101 888.56337,84.5407472 888.826787,84.0143658 C889.617038,82.9616029 888.56337,81.90884 889.090204,81.3824586 C889.353621,81.1192678 889.880455,80.8560771 889.880455,80.5928864 C890.407289,80.066505 890.143872,78.7505514 890.407289,78.2241699 C891.987792,75.5922627 890.934124,74.8026906 890.143872,75.8554534 C888.299953,79.2769328 886.982868,77.171407 886.719451,78.4873606 C886.456034,79.2769328 885.665783,80.8560771 884.612114,81.3824586 Z" opacity=".3"/>
      <path fill="url(#iceberg-i)" d="M884.875531,74.5394998 C884.612114,75.329072 884.348697,76.1186442 885.138949,76.3818349 C885.9292,76.3818349 885.9292,75.329072 886.456034,75.0658813 C886.456034,75.8554534 885.9292,76.9082163 887.246285,76.3818349 C887.509702,76.3818349 888.036536,75.8554534 888.036536,75.5922627 C888.299953,75.329072 888.826787,74.5394998 888.826787,74.0131184 C888.56337,71.1180205 886.719451,75.329072 886.456034,74.2763091 C886.192617,73.7499277 887.773119,71.1180205 886.982868,70.8548298 C886.192617,70.591639 885.138949,73.7499277 884.875531,74.5394998 Z" opacity=".3"/>
      <path fill="url(#iceberg-j)" d="M841.411719,121.91383 C841.148302,121.387448 839.831216,122.440211 839.567799,123.756165 C839.304382,125.072118 838.250714,124.282546 837.72388,124.808927 C837.460463,125.072118 837.460463,125.335309 837.197046,125.86169 C836.670212,126.914453 836.406795,127.177644 835.616544,127.704025 C834.826293,128.493598 834.299458,129.28317 834.299458,130.599123 C834.299458,131.915077 835.353127,132.178268 836.143378,131.388695 C836.406795,131.125505 836.670212,130.599123 836.933629,130.335933 C837.460463,130.072742 837.987297,130.335933 838.514131,130.072742 C839.567799,129.28317 838.250714,127.440835 838.777548,126.651262 C839.304382,125.5985 840.621468,125.5985 841.411719,126.124881 C841.938553,126.388072 841.938553,127.177644 842.728804,126.651262 C843.255638,126.388072 843.782472,125.072118 844.045889,124.545737 C844.309306,122.17702 842.465387,124.282546 841.938553,124.282546 C840.884885,124.019355 841.675136,122.440211 841.411719,121.91383 Z" opacity=".3"/>
      <path fill="url(#iceberg-k)" d="M853.265486,118.755541 C852.738652,119.545113 851.948401,119.808304 851.158149,120.861067 C850.367898,121.913829 850.631315,119.808304 850.894732,119.281922 C851.158149,116.913206 849.577647,118.49235 849.050813,119.018731 C846.416643,121.387448 848.260562,121.387448 846.68006,122.966592 C846.153226,123.492974 845.099557,124.545737 845.626391,125.335309 C846.153226,126.124881 847.997145,125.335309 849.577647,126.388072 C851.158149,127.440835 849.31423,127.704025 848.523979,128.230407 C847.206894,129.019979 847.470311,130.599123 845.099557,132.441458 C844.309306,132.96784 843.782472,133.757412 842.992221,134.283793 C841.938553,135.336556 842.20197,136.389319 841.411719,137.442082 C841.148302,137.705273 840.884885,137.968463 840.35805,138.231654 C839.831216,138.758035 839.831216,139.810798 839.040965,139.810798 C838.514131,139.810798 838.250714,139.284417 837.987297,139.284417 C837.460463,139.284417 836.670212,139.810798 836.143378,140.33718 C835.353127,141.389943 835.08971,142.442706 834.036041,143.495468 C832.982373,144.285041 831.928705,145.074613 830.875037,146.390566 C829.557952,148.232901 827.977449,149.285664 826.13353,150.338427 C823.762776,151.917572 821.392023,154.286288 819.284687,155.865432 C811.645592,160.866056 807.167503,161.392437 808.484588,161.392437 C813.489512,161.392437 820.074938,158.234149 822.972525,156.655005 C824.026194,156.128623 825.343279,155.07586 826.396947,154.549479 C826.923781,154.286288 827.714032,153.496716 828.240866,153.496716 C829.294535,153.496716 829.557952,154.812669 830.61162,154.023097 C831.401871,153.496716 831.928705,152.180762 832.718956,151.654381 C833.772624,151.127999 834.826293,150.864809 835.616544,150.338427 C836.933629,149.812046 836.670212,148.759283 836.670212,147.443329 C836.933629,146.127376 838.514131,144.285041 839.304382,144.02185 C840.094633,143.758659 841.148302,144.548231 841.938553,144.02185 C842.20197,143.758659 842.992221,143.758659 843.255638,142.442706 C843.255638,141.126752 843.519055,140.863561 843.519055,140.073989 C843.782472,139.021226 843.255638,137.968463 843.782472,136.9157 C844.309306,135.599747 845.889808,135.336556 846.68006,134.283793 C847.470311,133.494221 847.733728,131.651886 849.31423,131.388695 C850.631315,131.125505 854.319154,129.54636 853.79232,130.599123 C853.265486,131.388695 850.894732,131.915077 850.631315,132.441458 C849.841064,133.23103 849.577647,134.810175 848.523979,135.599747 C847.470311,136.389319 845.626391,136.126128 845.362974,137.968463 C845.362974,139.021226 845.626391,139.284417 845.099557,140.073989 C844.83614,140.600371 844.309306,140.863561 844.045889,141.389943 C843.255638,143.495468 845.362974,141.653133 845.889808,141.126752 C847.997145,139.284417 846.68006,136.65251 850.894732,136.126128 C852.211818,135.862938 853.528903,137.178891 852.211818,137.178891 C850.104481,137.178891 848.523979,138.758035 848.523979,140.073989 C848.523979,141.389943 846.68006,140.863561 846.153226,142.969087 C845.889808,144.285041 843.782472,145.864185 842.465387,146.916948 C834.562875,153.759907 828.7677,155.865432 831.401871,155.07586 C835.879961,153.496716 839.304382,151.917572 842.992221,149.812046 C844.045889,149.285664 845.099557,147.969711 845.889808,147.443329 C846.68006,147.180139 847.733728,146.390566 848.260562,145.864185 C849.31423,145.074613 849.31423,143.495468 850.631315,142.705896 C851.421566,142.179515 852.475235,142.969087 853.528903,142.179515 C854.055737,141.653133 854.319154,141.389943 854.845988,140.863561 C855.372822,140.33718 855.899656,140.33718 856.953324,140.33718 C857.743576,140.600371 858.533827,139.284417 859.587495,138.758035 C859.850912,138.758035 860.641163,139.021226 860.641163,138.231654 C860.641163,137.442082 859.324078,137.968463 859.324078,137.178891 C859.324078,136.65251 858.797244,136.126128 858.27041,136.389319 C856.953324,136.9157 858.006993,134.283793 856.42649,134.810175 C855.372822,135.073365 858.006993,132.704649 858.27041,133.494221 C858.27041,134.810175 859.587495,134.546984 860.377746,133.757412 C860.641163,133.494221 861.431414,132.178267 861.958248,132.441458 C862.221665,132.704649 863.538751,133.23103 863.275334,133.757412 C862.7485,135.336556 861.958248,134.810175 861.694831,135.599747 C860.114329,137.705273 863.802168,136.126128 864.329002,134.810175 C864.855836,133.757412 865.119253,133.494221 865.909504,132.96784 C866.436338,132.704649 867.226589,132.441458 867.226589,131.125505 C865.909504,130.335932 866.172921,130.335932 865.909504,128.756788 C865.909504,127.177644 865.38267,127.177644 864.065585,126.914453 C863.011917,126.914453 861.958248,126.651262 861.431414,127.704025 C860.641163,129.019979 859.850912,127.967216 859.060661,127.967216 C858.533827,127.704025 859.587495,126.914453 859.324078,124.545737 C859.060661,123.229783 860.114329,120.861067 861.167997,120.334685 C864.592419,118.49235 863.275334,116.386824 864.592419,116.123634 C865.646087,116.123634 866.172921,115.334061 866.699755,114.80768 C867.226589,114.018108 868.807092,111.649391 867.753423,110.859819 C867.226589,110.596628 866.436338,110.859819 866.172921,111.912582 C865.909504,113.491726 864.592419,112.175773 864.065585,114.80768 C863.802168,116.913206 863.275334,115.070871 862.221665,114.281299 C861.958248,114.018108 861.694831,113.754917 861.431414,113.491726 C860.90458,113.228536 860.641163,113.754917 860.114329,113.754917 C859.324078,113.754917 859.324078,112.965345 858.533827,112.702154 C857.743576,112.702154 857.216742,113.491726 856.689907,114.018108 C856.163073,114.544489 855.899656,114.544489 855.636239,115.334061 C855.372822,115.860443 855.372822,117.176396 854.582571,117.176396 C854.055737,117.176396 854.055737,116.386824 853.528903,116.123634 C853.79232,116.650015 853.528903,118.229159 853.265486,118.755541 Z" opacity=".25"/>
      <path fill="url(#iceberg-l)" d="M192.878776,156.655556 C235.552338,147.707071 288.762582,109.807608 297.191927,115.071422 C338.548404,109.807608 400.978244,76.9087678 422.841859,60.8541338 C434.432209,52.1688401 452.607985,33.2191082 462.090999,26.3761495 C470.256927,20.322763 473.944766,16.6380929 480.003358,24.2706238 C484.481448,30.0608196 490.276623,35.0614433 495.544964,30.587201 C499.759636,27.1657217 504.76456,22.165098 508.715816,18.2172372 C513.72074,13.4798042 518.725664,8.47918055 524.257422,5.05770119 C526.101341,4.00493831 530.052597,6.63684551 531.633099,6.37365479 C533.477019,5.84727335 535.057521,4.53131975 536.638023,3.21536615 C540.852696,-0.995685375 541.906364,3.21536615 547.174705,11.3742785 C552.96988,20.0595722 560.608974,28.2184846 567.984652,33.7454897 C575.887163,39.7988762 584.053092,45.0626906 593.009271,42.6939742 C601.1752,40.5884484 610.658213,35.5878247 619.087559,32.4295361 C624.3559,30.3240103 621.985146,35.324634 636.999918,45.3258814 C640.160923,47.4314071 643.848761,51.6424586 647.273183,53.221603 C651.487856,55.063938 651.751273,50.326505 655.702529,54.5375566 C665.712376,65.5915668 683.361318,72.6977162 696.005337,75.8560049 C710.493274,79.8038657 724.717795,81.38301 739.46915,81.6462007 C752.376585,96.6480718 768.971859,96.1216903 785.567133,95.5953089 L1111.67744,208.240937 L313.787201,203.766695 L1.638,204.029886 C1.638,204.029886 150.205215,165.60404 192.878776,156.655556 Z"/>
      <path fill="url(#iceberg-m)" d="M508.452399,17.9540465 C513.457323,13.2166135 518.462247,8.21598983 523.994005,4.79451047 C525.837924,3.74174759 529.78918,6.37365479 531.369682,6.11046407 C524.784256,5.05770119 514.774408,12.9534228 508.452399,17.9540465 Z" opacity=".5"/>
      <path fill="url(#iceberg-n)" d="M470.520344,205.082648 C474.4716,199.555643 478.422856,193.765447 481.847277,188.238442 C483.42778,185.869726 488.432703,187.44887 491.857125,185.869726 C494.754713,183.501009 495.281547,179.553149 496.335215,175.868479 C496.862049,174.289334 498.442551,171.920618 500.286471,171.920618 C506.871897,171.920618 516.881745,172.71019 520.306166,161.129798 C521.886668,154.023649 529.78918,151.918123 534.26727,145.601546 C534.26727,145.601546 536.374606,144.022401 535.320938,142.443257 C533.213602,140.074541 528.735512,139.284968 530.316014,135.337108 C530.842848,132.968391 534.26727,132.968391 534.26727,128.230958 C521.623251,130.599675 500.023054,123.493525 504.237726,101.911886 C504.76456,97.9640254 511.876821,99.5431697 513.72074,94.8057367 C516.35491,88.4891594 519.779332,82.4357729 523.203754,76.1191956 C524.784256,72.1713348 519.252498,68.4866647 522.150086,66.1179482 C523.730588,62.9596596 526.628175,60.5909431 528.208678,58.4854174 C529.262346,56.906273 527.155009,53.7479844 526.628175,53.7479844 C521.096417,52.1688401 516.091493,52.9584122 511.08657,49.8001236 C508.979233,49.0105514 505.554812,45.0626906 507.662148,40.5884484 C513.72074,29.7976289 525.837924,33.482299 529.262346,24.2706238 C530.842848,18.7436186 532.42335,11.9006599 533.740436,5.32089191 C534.794104,4.79451047 535.584355,3.74174759 536.638023,2.95217543 C540.852696,-1.25887609 541.906364,2.95217543 547.174705,11.1110877 C552.96988,19.7963815 560.608974,27.9552938 567.984652,33.482299 C575.887163,39.5356855 584.053092,44.7994999 593.009271,42.4307834 C601.1752,40.3252577 610.658213,35.324634 619.087559,32.1663454 C624.3559,30.0608196 621.985146,35.0614433 636.999918,45.0626906 C640.160923,47.1682164 643.848761,51.3792679 647.273183,52.9584122 C651.487856,54.8007473 651.751273,50.0633143 655.702529,54.2743658 C665.712376,65.3283761 683.361318,72.4345255 696.005337,75.5928142 C710.493274,79.540675 724.454378,81.1198193 739.205733,81.38301 C752.113168,96.384881 768.708442,95.8584996 785.567133,95.3321182 L1111.67744,207.977746 L470.520344,205.082648 Z" opacity=".3"/>
      <path fill="url(#iceberg-o)" d="M515.828076,102.701458 C524.520839,92.4370202 519.515915,92.700211 522.67692,85.0676801 C525.31109,79.540675 526.364758,76.645577 527.681844,74.0136698 C528.998929,71.3817626 521.359834,72.1713348 524.520839,69.0130462 C526.628175,66.9075204 528.735512,69.2762369 531.369682,65.5915668 C532.159933,63.7492318 536.374606,56.3798916 531.633099,54.0111751 C515.301242,46.1154535 508.188982,44.7994999 514.247574,41.3780206 C517.145162,39.7988762 521.359834,37.6933505 526.101341,37.4301598 C530.842848,37.166969 529.262346,34.0086804 532.42335,29.7976289 C535.584355,25.8497681 533.477019,21.9019073 534.530687,14.7957578 C535.320938,9.26875271 537.955108,10.847897 537.955108,7.16322695 C537.955108,3.47855687 540.852696,1.63622183 538.481942,1.10984039 C541.116113,0.0570775056 542.696615,4.00493831 547.174705,10.847897 C552.96988,19.5331908 560.608974,27.6921031 567.984652,33.2191082 C575.623746,39.0093041 583.26284,44.0099278 591.955603,42.4307834 C581.155504,44.5363092 593.009271,45.8522628 596.69711,44.7994999 C599.858114,44.0099278 579.048168,54.2743658 581.155504,56.6430823 C582.472589,58.2222266 589.321433,52.1688401 587.74093,56.906273 C585.10676,65.3283761 571.67249,67.6970926 572.462742,71.1185719 C572.989576,73.2240977 576.413997,69.0130462 577.731083,69.8026183 C579.048168,70.8553812 576.940831,70.5921905 576.677414,75.8560049 C576.413997,80.8566286 567.194401,72.960907 558.238221,79.540675 C553.760131,82.6989636 568.511486,83.7517265 569.03832,87.962778 C569.565154,92.1738295 568.511486,96.1216903 573.51641,94.0161646 C578.784751,91.6474481 582.999423,95.8584996 588.267764,95.8584996 C591.165352,95.8584996 594.853191,90.3314945 598.277612,91.3842574 C611.975299,96.1216903 606.443541,85.3308708 616.453388,75.0664327 C619.87781,71.3817626 613.555801,67.6970926 617.770474,59.5381802 C623.565649,48.2209793 615.136303,47.6945978 618.033891,41.904402 C620.668061,36.6405876 617.770474,36.9037783 619.614393,35.324634 C622.511981,33.2191082 621.985146,31.3767732 619.087559,31.6399639 C624.3559,29.5344382 621.985146,34.5350618 636.999918,44.5363092 C640.160923,46.641835 643.848761,50.8528865 647.273183,52.4320308 C651.487856,54.2743658 651.751273,49.5369329 655.702529,53.7479844 C665.712376,64.8019946 683.361318,71.9081441 696.005337,75.0664327 C710.493274,79.0142935 724.717795,80.5934378 739.46915,80.8566286 C751.849751,95.3321182 767.654774,95.3321182 783.986631,94.8057367 L1109.04327,207.977746 C1086.91623,202.450741 729.722719,185.606535 722.347041,183.237819 C718.395786,181.395484 714.971364,176.658051 711.020108,177.710814 C682.834484,183.237819 660.707452,161.65618 633.838914,155.076412 C620.404644,151.391742 605.916707,155.076412 593.272688,156.129175 C578.521334,157.181937 566.140732,151.391742 552.706463,141.916876 C546.121037,137.179443 543.223449,134.810726 540.589279,130.336484 C536.374606,122.967144 533.213602,124.019907 528.472095,125.862242 C521.886668,128.75734 523.203754,118.492902 520.306166,116.387376 C517.145162,114.28185 513.72074,115.334613 513.193906,116.387376 C509.24265,122.177572 509.506067,110.59718 515.828076,102.701458 Z" opacity=".3"/>
      <path fill="url(#iceberg-p)" d="M548.228373,60.3277524 C542.696615,57.4326545 540.852696,49.0105514 544.540535,50.8528865 C545.85762,51.6424586 549.808875,59.2749895 551.652795,55.5903194 C553.496714,51.9056494 559.818723,60.0645617 560.608974,56.906273 C561.399226,53.7479844 560.872391,53.4847937 560.608974,49.8001236 C560.345557,46.3786442 566.930984,58.7486081 567.721235,52.9584122 C568.511486,47.1682164 554.023548,39.2724948 552.706463,42.1675927 C551.389378,45.0626906 550.072293,44.5363092 547.701539,45.3258814 C545.330786,46.1154535 548.228373,30.587201 546.121037,27.4289124 C542.696615,22.4282887 542.433198,22.165098 545.594203,21.3755258 C548.755207,20.5859537 550.33571,21.6387166 547.701539,17.9540465 C545.067369,14.2693764 546.121037,10.847897 540.852696,5.32089191 C536.90144,1.10984039 541.906364,3.47855687 542.960032,5.05770119 C544.0137,6.63684551 545.067369,8.74237127 546.647871,10.847897 C552.443046,19.5331908 560.08214,27.6921031 567.457818,33.2191082 C575.096912,39.0093041 582.736006,44.0099278 591.428769,42.4307834 C580.62867,44.5363092 592.482437,45.8522628 596.170276,44.7994999 C599.33128,44.0099278 574.306661,52.9584122 576.413997,55.063938 C581.682338,60.5909431 584.843343,56.6430823 583.526258,59.5381802 C581.682338,62.6964689 570.355405,65.5915668 571.145656,69.0130462 C571.67249,71.1185719 571.409073,73.7504791 573.51641,73.4872884 C575.096912,73.2240977 575.096912,75.3296234 572.989576,75.5928142 C569.03832,76.1191956 557.184553,69.0130462 553.233297,68.7498554 C549.808875,68.4866647 553.760131,63.2228503 548.228373,60.3277524 Z" opacity=".3"/>
      <path fill="url(#iceberg-q)" d="M558.238221,60.0645617 C559.291889,63.2228503 557.711387,66.9075204 562.716311,67.9602833 C567.721235,69.0130462 561.399226,64.8019946 562.452894,60.8541338 C563.506562,56.906273 563.769979,52.9584122 565.877315,60.0645617 C567.194401,64.8019946 569.03832,61.643706 570.618822,61.9068967 C572.726159,62.1700874 574.043244,62.6964689 572.199325,56.6430823 C570.882239,52.1688401 572.726159,54.0111751 574.043244,55.063938 C575.623746,56.3798916 575.096912,53.4847937 576.940831,55.3271287 C582.209172,60.8541338 585.370177,56.906273 584.053092,59.801371 C582.209172,62.9596596 570.882239,65.8547575 571.67249,69.2762369 C572.199325,71.3817626 571.935907,74.0136698 574.043244,73.7504791 C575.623746,73.4872884 575.623746,75.5928142 573.51641,75.8560049 C569.565154,76.3823863 557.711387,69.2762369 553.760131,69.0130462 C549.808875,68.7498554 553.760131,63.486041 548.228373,60.5909431 C542.696615,57.6958452 547.438122,57.4326545 551.125961,59.2749895 C552.443046,60.0645617 554.286965,66.9075204 555.340633,63.2228503 C555.867468,60.5909431 557.184553,56.906273 558.238221,60.0645617 Z" opacity=".3"/>
      <path fill="url(#iceberg-r)" d="M515.564659,103.22784 C517.408579,105.333366 518.989081,109.018036 521.359834,110.59718 C524.784256,112.965896 529.78918,109.807608 528.472095,102.175077 C531.896516,102.175077 533.477019,106.91251 532.950184,110.59718 C537.428274,109.807608 537.955108,102.701458 537.955108,98.2272161 C541.906364,100.595933 540.852696,108.228463 542.433198,112.965896 C543.486866,116.913757 548.49179,113.755469 551.916212,116.124185 C553.496714,116.913757 554.550382,121.65119 552.443046,124.546288 C556.394302,129.283721 561.92606,125.33586 564.56023,129.283721 C566.140732,130.862865 560.608974,135.600298 562.979728,137.705824 C570.091988,145.338355 577.467665,152.181314 585.370177,156.918747 C573.779827,155.865984 563.243145,150.602169 552.179629,142.969638 C545.594203,138.232206 542.696615,135.863489 540.062445,131.389247 C535.847772,124.019907 532.686767,125.07267 527.945261,126.915005 C521.359834,129.810102 522.67692,119.545664 519.779332,117.440139 C516.618328,115.334613 513.193906,116.387376 512.667072,117.440139 C509.24265,122.177572 509.506067,110.860371 515.564659,103.22784 Z" opacity=".35"/>
      <path fill="url(#iceberg-s)" d="M616.189971,76.3823863 C617.507057,74.5400513 618.560725,76.645577 619.087559,71.6449534 C619.614393,66.6443297 622.511981,71.9081441 625.409568,70.3289998 C629.360824,67.9602833 627.253487,64.2756132 631.204743,65.0651854 C634.102331,66.6443297 634.892582,77.9615306 637.790169,69.5394276 C640.687757,61.1173246 640.42434,56.3798916 639.897506,51.6424586 C639.107255,46.9050257 631.46816,61.1173246 628.307156,57.4326545 C627.516904,56.3798916 630.414492,53.7479844 631.46816,50.0633143 C632.521828,46.641835 631.994994,42.1675927 628.043739,39.5356855 C623.829066,36.9037783 623.038815,38.2197319 620.931478,37.6933505 C620.141227,37.4301598 621.194895,36.3773969 622.511981,35.0614433 C623.302232,34.2718711 621.985146,31.3767732 622.511981,31.6399639 C624.619317,33.2191082 626.726653,37.4301598 636.999918,44.5363092 C640.160923,46.641835 643.848761,50.8528865 647.273183,52.4320308 C651.487856,54.2743658 651.751273,49.5369329 655.702529,53.7479844 C665.712376,64.8019946 683.361318,71.9081441 696.005337,75.0664327 C710.493274,79.0142935 724.717795,80.5934378 739.46915,80.8566286 C751.849751,95.3321182 767.654774,95.3321182 783.986631,94.8057367 L1109.04327,207.977746 C1086.91623,202.450741 729.722719,185.606535 722.347041,183.237819 C718.395786,181.395484 714.971364,176.658051 711.020108,177.710814 C682.834484,183.237819 660.707452,161.65618 633.838914,155.076412 C653.331775,159.813845 657.019614,154.55003 657.546448,149.549406 C657.809865,144.548783 656.49278,130.073293 655.965946,124.019907 C655.175694,109.807608 660.707452,117.96652 679.67348,120.598427 C692.054081,129.546912 699.956592,125.599051 709.96644,126.125432 C719.976288,126.651814 726.825131,124.019907 718.659203,122.177572 C710.229857,120.335237 694.688252,111.913134 691.26383,108.491654 C687.839408,105.070175 688.893076,101.385505 684.941821,102.438268 C680.990565,103.754221 678.619812,102.964649 674.931973,102.701458 C670.980717,102.438268 675.722224,108.228463 678.356395,109.807608 C680.990565,111.386752 683.888153,113.492278 685.995489,115.071422 C692.054081,119.808855 694.951669,122.703953 684.15157,117.440139 C679.146646,115.071422 673.878305,112.176324 665.975793,110.59718 C659.390367,108.228463 658.336699,112.702706 652.278107,107.965273 C650.697605,106.386128 643.585344,105.070175 639.634089,104.806984 C630.677909,104.280603 630.941326,96.1216903 625.409568,92.1738295 C619.350976,86.9100151 623.829066,84.5412986 618.824142,80.5934378 C616.189971,80.0670564 614.872886,78.2247214 616.189971,76.3823863 Z" opacity=".3"/>
      <path fill="url(#iceberg-t)" d="M1115.89211,205.872221 C1116.41894,205.872221 1116.94578,206.135411 1116.94578,206.135411 L1115.89211,205.872221 Z" opacity=".3"/>
      <path fill="url(#iceberg-u)" d="M618.560725,77.9615306 C620.404644,77.6983399 621.194895,81.6462007 621.721729,76.9087678 C622.248564,71.9081441 622.775398,73.7504791 625.672985,72.1713348 C629.624241,69.8026183 630.151075,66.1179482 631.731577,67.6970926 C633.312079,69.2762369 628.043739,74.5400513 629.360824,75.0664327 C630.414492,75.5928142 631.994994,76.9087678 631.204743,78.4879121 C630.414492,80.0670564 629.360824,83.7517265 631.731577,90.5946852 C633.048662,94.2793553 631.731577,85.8572522 634.629165,83.7517265 C635.682833,82.9621543 637.526752,87.962778 639.634089,87.962778 C643.05851,87.6995873 648.063434,84.0149172 650.697605,81.9093914 C653.331775,79.540675 650.697605,77.1719585 653.331775,75.3296234 C655.965946,73.4872884 653.331775,66.6443297 658.073282,65.0651854 C662.814789,63.7492318 638.053586,53.221603 643.585344,54.5375566 C646.482932,55.3271287 646.746349,52.9584122 647.5366,53.221603 C651.751273,55.063938 652.01469,50.326505 655.965946,54.5375566 C665.975793,65.5915668 683.624736,72.6977162 696.268754,75.8560049 C710.493274,79.540675 724.454378,81.38301 738.942315,81.6462007 C751.849751,96.9112625 768.708442,96.1216903 785.83055,95.5953089 L1109.5701,209.2937 C1086.12598,203.766695 731.039804,184.027391 723.664127,181.921865 C719.712871,180.07953 715.761615,174.026143 711.81036,175.078906 C683.624736,180.605911 660.970869,162.708943 634.102331,156.129175 C653.595192,160.866607 662.024538,158.2347 662.551372,152.970886 C662.814789,147.970262 660.180618,134.547535 659.917201,128.494149 C659.12695,114.28185 663.60504,123.756716 682.571067,126.388623 C694.951669,135.337108 710.756691,131.126056 720.766539,131.652438 C730.776387,132.178819 734.200809,124.809479 725.771463,123.230334 C717.342118,121.387999 699.166341,115.334613 695.478503,111.913134 C692.054081,108.491654 690.473579,97.7008346 686.258906,99.0167882 C682.30765,100.332742 676.775892,102.438268 672.824637,102.175077 C668.873381,101.911886 672.824637,109.807608 675.458807,111.386752 C678.092978,112.965896 695.215086,123.756716 684.414987,118.492902 C679.410063,116.124185 674.141722,113.229087 666.23921,111.649943 C659.653784,109.281226 658.600116,113.755469 652.541524,109.018036 C650.961022,107.438891 643.848761,106.122938 639.897506,105.859747 C630.941326,105.333366 631.204743,97.1744532 625.672985,93.2265924 C619.614393,87.962778 624.092483,85.5940615 619.087559,81.6462007 C616.980223,80.0670564 617.24364,78.2247214 618.560725,77.9615306 Z" opacity=".3"/>
      <path fill="url(#iceberg-v)" d="M647.800017,52.9584122 C652.01469,54.8007473 652.278107,50.0633143 656.229363,54.2743658 C666.23921,65.3283761 683.888153,72.4345255 696.532171,75.5928142 C668.609964,68.4866647 652.541524,55.5903194 647.800017,52.9584122 Z" opacity=".5"/>
      <path fill="url(#iceberg-w)" d="M366.470611,138.495396 C382.53905,131.915628 403.612414,113.755469 412.04176,106.649319 C415.729598,103.49103 413.358845,101.385505 421.524773,94.542546 C426.26628,90.5946852 428.1102,82.6989636 431.534621,78.7511028 C436.276128,73.7504791 436.802962,69.8026183 439.963967,67.4339018 C443.388388,65.3283761 444.17864,59.2749895 450.237232,56.3798916 C452.871402,55.3271287 449.710398,53.221603 456.822658,44.0099278 C463.934918,34.5350618 476.842353,31.3767732 474.208183,28.744866 C471.574012,25.8497681 474.208183,21.1123351 472.627681,21.1123351 C466.832506,22.165098 460.247079,27.4289124 461.827582,26.3761495 C469.99351,20.322763 473.681349,16.6380929 479.739941,24.2706238 C483.42778,29.0080567 487.905869,33.2191082 492.383959,32.1663454 C480.003358,36.3773969 500.286471,32.4295361 497.388883,35.8510154 C494.491296,39.2724948 492.647376,49.0105514 488.959538,50.326505 C485.271699,51.6424586 482.110694,52.4320308 482.637528,56.906273 C483.42778,61.3805153 482.900945,64.8019946 480.530192,66.1179482 C478.159439,67.4339018 475.261851,66.9075204 473.944766,67.9602833 C472.627681,69.0130462 473.154515,76.645577 470.520344,79.2774842 C467.886174,81.9093914 468.413008,83.4885358 463.934918,84.0149172 C459.456828,84.2781079 433.115124,122.440762 379.114629,138.232206 C369.104781,140.600922 365.153525,138.495396 366.470611,138.495396 Z" opacity=".3"/>
      <path fill="url(#iceberg-x)" d="M423.368693,108.228463 C426.26628,106.122938 423.895527,103.754221 428.1102,103.22784 C432.324872,102.701458 431.534621,102.964649 430.480953,99.5431697 C429.427285,96.1216903 433.641958,100.069551 437.066379,99.5431697 C440.754218,99.0167882 438.120047,96.6480718 437.066379,96.384881 C436.012711,96.1216903 436.012711,95.8584996 434.959043,96.384881 C433.905375,96.9112625 433.115124,87.1732058 429.954119,85.8572522 C426.793114,84.5412986 428.637034,81.9093914 430.480953,83.225345 C432.324872,84.2781079 435.485877,88.7523502 437.593213,90.3314945 C439.70055,91.6474481 443.124971,89.805113 443.388388,86.120443 C443.651805,82.4357729 446.81281,92.700211 448.129895,90.3314945 C449.44698,88.2259687 452.081151,91.1210666 452.081151,89.5419223 C461.300748,79.540675 459.193411,77.1719585 457.612909,76.9087678 C455.76899,76.645577 453.661653,77.9615306 454.451904,75.5928142 C455.242155,73.2240977 459.193411,70.8553812 459.456828,69.2762369 C459.720245,67.9602833 459.456828,67.9602833 462.88125,66.6443297 C466.305671,65.3283761 467.095923,59.5381802 466.832506,57.4326545 C466.569089,55.5903194 466.569089,49.8001236 468.413008,54.8007473 C469.466676,57.6958452 474.735017,62.4332782 478.94969,64.8019946 C479.213107,64.8019946 480.003358,65.8547575 476.315519,66.381139 C475.261851,66.6443297 474.208183,66.6443297 473.681349,67.1707111 C472.364264,68.223474 472.891098,75.8560049 470.256927,78.4879121 C467.622757,81.1198193 468.149591,82.6989636 463.671501,83.225345 C459.193411,83.4885358 432.851706,121.65119 378.851212,137.442633 C376.743875,137.969015 374.899956,138.495396 373.319454,138.758587 C393.339149,131.652438 420.734522,110.333989 423.368693,108.228463 Z" opacity=".3"/>
      <path fill="url(#iceberg-y)" d="M483.42778,44.5363092 C485.798533,45.8522628 484.744865,42.4307834 485.798533,40.5884484 C486.852201,39.0093041 488.696121,43.4835463 489.749789,42.1675927 C490.276623,41.3780206 491.066874,39.2724948 489.749789,39.7988762 C488.432703,40.3252577 488.959538,42.4307834 486.852201,39.0093041 C484.744865,35.5878247 478.686273,30.8503918 477.369187,29.7976289 C476.052102,28.4816753 480.530192,30.8503918 478.422856,29.0080567 C476.315519,27.1657217 475.261851,24.2706238 476.052102,22.9546702 C476.578936,21.9019073 473.681349,19.7963815 475.261851,20.5859537 C476.578936,21.1123351 477.896022,22.4282887 479.476524,24.2706238 C483.164363,29.0080567 487.642452,33.2191082 492.120542,32.1663454 C479.739941,36.3773969 500.023054,32.4295361 497.125466,35.8510154 C494.227878,39.2724948 492.383959,49.0105514 488.696121,50.326505 C485.008282,51.6424586 481.847277,52.4320308 482.374111,56.906273 C482.637528,52.1688401 481.847277,50.326505 481.320443,48.7473607 C480.530192,44.7994999 478.686273,42.1675927 483.42778,44.5363092 Z" opacity=".3"/>
    </g>
    <g fill-rule="nonzero" transform="rotate(-.3 38579.114 968.442)">
      <path fill="url(#iceberg-z)" d="M1149.66837,207.321284 L848.134386,106.519238 L813.300135,94.6756558 C813.027992,94.6756558 812.75585,94.6756558 812.75585,94.6756558 C811.939422,94.6756558 811.395137,94.6756558 810.578709,94.6756558 C810.034424,94.6756558 809.490139,94.6756558 808.945853,94.6756558 C808.401568,94.6756558 807.857283,94.6756558 807.312998,94.6756558 C806.768713,94.6756558 806.224428,94.6756558 805.680142,94.6756558 C805.680142,94.6756558 805.680142,94.6756558 805.680142,94.6756558 C805.135857,94.6756558 804.591572,94.6756558 804.047287,94.6756558 C803.503002,94.6756558 802.958716,94.6756558 802.414431,94.6756558 C802.414431,94.6756558 802.142289,94.6756558 802.142289,94.6756558 C801.598003,94.6756558 801.325861,94.6756558 800.781576,94.6756558 C800.237291,94.6756558 799.693005,94.6756558 799.14872,94.6756558 C798.876578,94.6756558 798.876578,94.6756558 798.604435,94.6756558 C798.332292,94.6756558 797.788007,94.6756558 797.515865,94.6756558 C796.971579,94.6756558 796.427294,94.6756558 796.155152,94.6756558 C795.883009,94.6756558 795.883009,94.6756558 795.610867,94.6756558 C795.338724,94.6756558 794.794439,94.6756558 794.522296,94.6756558 C793.978011,94.6756558 793.433726,94.6756558 793.161583,94.4124651 C792.889441,94.4124651 792.617298,94.4124651 792.345155,94.4124651 C792.073013,94.4124651 791.80087,94.4124651 791.528728,94.4124651 C790.984442,94.4124651 790.440157,94.4124651 790.168015,94.1492744 C789.895872,94.1492744 789.62373,94.1492744 789.351587,93.8860836 C789.079444,93.8860836 788.807302,93.8860836 788.535159,93.6228929 C787.990874,93.6228929 787.718731,93.3597022 787.174446,93.3597022 C786.902304,93.3597022 786.630161,93.0965115 786.358018,93.0965115 C786.085876,93.0965115 785.813733,93.0965115 785.541591,92.8333208 C784.997306,92.8333208 784.725163,92.57013 784.180878,92.57013 C783.908735,92.57013 783.636593,92.3069393 783.36445,92.3069393 C783.092307,92.3069393 783.092307,92.3069393 782.820165,92.0437486 C782.27588,91.7805579 782.003737,91.7805579 781.459452,91.5173672 C781.187309,91.5173672 780.915167,91.2541764 780.370881,91.2541764 C780.098739,91.2541764 780.098739,90.9909857 779.826596,90.9909857 C779.282311,90.727795 779.010169,90.727795 778.465883,90.4646043 C778.193741,90.2014136 777.921598,90.2014136 777.377313,89.9382228 C777.10517,89.9382228 777.10517,89.6750321 776.833028,89.6750321 C776.288743,89.4118414 776.0166,89.1486507 775.472315,88.88546 C775.200172,88.6222692 774.655887,88.3590785 774.383745,88.3590785 C774.111602,88.3590785 774.111602,88.0958878 773.839459,88.0958878 C773.295174,87.8326971 773.023032,87.5695064 772.478746,87.3063156 C772.206604,87.0431249 771.934461,86.7799342 771.390176,86.5167435 C771.118033,86.5167435 771.118033,86.2535528 770.845891,86.2535528 C770.573748,85.990362 770.029463,85.7271713 769.75732,85.4639806 C769.485178,85.2007899 769.213035,84.9375991 768.940893,84.6744084 C768.66875,84.4112177 768.396608,84.148027 768.124465,83.8848363 C767.852322,83.6216455 767.58018,83.3584548 767.035895,83.0952641 C766.219467,82.3056919 765.403039,81.5161198 764.586611,80.4633569 C764.586611,80.4633569 764.586611,80.4633569 764.586611,80.4633569 C749.618769,80.2001662 735.467354,78.3578311 720.499512,74.6731611 C707.436667,71.2516817 689.203114,64.408723 678.861696,53.3547127 C677.500983,51.7755684 676.412412,51.5123777 675.595984,51.5123777 C675.595984,51.5123777 675.323842,51.5123777 675.323842,51.5123777 C674.235272,51.5123777 673.146701,52.3019499 671.785988,52.5651406 C671.241703,52.5651406 670.96956,52.3019499 670.425275,52.0387591 C670.153133,52.0387591 670.153133,52.0387591 669.88099,52.0387591 C669.88099,52.0387591 669.88099,52.0387591 669.608848,52.0387591 C666.343136,50.7228055 662.53314,46.511754 658.995287,44.1430375 C645.388157,35.1945531 645.388157,30.4571201 642.122446,30.7203108 C641.578161,30.7203108 641.033876,30.9835015 640.217448,31.2466923 C631.781028,34.4049809 621.983894,39.4056046 613.275331,41.5111303 C612.731046,41.5111303 612.458904,41.7743211 611.914619,41.7743211 C611.642476,41.7743211 611.098191,41.7743211 610.826048,42.0375118 C610.553906,42.0375118 610.553906,42.0375118 610.281763,42.0375118 C610.00962,42.0375118 609.465335,42.0375118 609.193193,42.0375118 C609.193193,42.0375118 608.92105,42.0375118 608.92105,42.0375118 C608.648907,42.0375118 608.376765,42.0375118 608.104622,42.0375118 C607.83248,42.0375118 607.560337,42.0375118 607.016052,42.0375118 C607.016052,42.0375118 606.743909,42.0375118 606.743909,42.0375118 C600.212487,41.2479396 593.953208,37.0368881 587.693928,32.8258366 C580.073936,27.2988315 572.1818,19.1399191 566.194663,10.4546254 C562.112525,4.40123882 560.479669,0.45337802 558.030386,0.71656874 C557.758243,0.71656874 557.486101,0.71656874 557.213958,0.97975946 C557.213958,0.97975946 557.213958,0.97975946 557.213958,0.97975946 C556.669673,1.24295018 555.853245,1.76933162 555.036817,2.29571306 C553.403962,3.87485738 551.771106,5.19081098 549.866108,5.4540017 C549.593965,5.4540017 549.04968,5.4540017 548.505395,5.4540017 C546.600397,4.92762026 543.606829,3.34847594 541.973973,4.1380481 C536.531121,7.29633674 531.088269,12.5601511 525.91756,17.2975841 C521.835421,21.2454449 516.664712,26.2460686 512.310431,29.6675479 C511.22186,30.4571201 510.405433,30.9835015 509.316862,31.2466923 C508.772577,31.2466923 508.228292,31.509883 507.684007,31.509883 C507.684007,31.509883 507.684007,31.509883 507.411864,31.509883 C506.323294,31.509883 505.234723,31.2466923 504.146153,30.7203108 C504.146153,30.7203108 504.146153,30.7203108 503.87401,30.7203108 C503.329725,30.4571201 502.78544,30.1939294 502.241155,29.9307387 C502.241155,29.9307387 502.241155,29.9307387 501.969012,29.6675479 C500.880442,28.8779758 499.791872,28.0884036 498.975444,27.0356407 C498.975444,27.0356407 498.703301,26.77245 498.703301,26.77245 C498.159016,26.2460686 497.886873,25.7196871 497.342588,25.4564964 C497.342588,25.4564964 497.070446,25.1933057 497.070446,25.1933057 C496.526161,24.6669243 496.254018,24.1405428 495.709733,23.6141614 C494.893305,22.8245892 494.34902,22.0350171 493.804735,21.5086356 C493.804735,21.5086356 493.804735,21.5086356 493.532592,21.2454449 C493.260449,20.9822542 492.988307,20.9822542 492.716164,20.7190635 C492.716164,20.7190635 492.444022,20.4558727 492.444022,20.4558727 C492.171879,20.192682 491.899736,20.192682 491.899736,20.192682 C491.899736,20.192682 491.627594,19.9294913 491.627594,19.9294913 C491.627594,19.9294913 491.627594,19.9294913 491.627594,19.9294913 C491.627594,19.9294913 491.355451,19.9294913 491.355451,19.9294913 C491.355451,19.9294913 491.355451,19.9294913 491.355451,19.9294913 C487.817598,18.6135377 484.279744,20.9822542 479.109035,24.930115 C477.748322,25.7196871 477.204037,26.2460686 477.748322,25.9828779 C468.223331,32.8258366 449.17335,52.0387591 437.199076,60.4608622 C414.883384,76.5154961 350.113447,109.414336 307.387061,114.678151 C298.678498,109.414336 243.705695,147.576991 199.618595,156.262284 C155.531496,165.210769 2.04307524,203.636614 2.04307524,203.636614 L324.259901,203.110232 L487.00117,203.899805 C487.00117,204.162995 486.729027,204.162995 486.729027,204.426186 L1139.5991,207.584475 C1142.86481,207.847665 1145.31409,208.374047 1146.6748,208.637238 C1146.40266,208.637238 1146.13052,208.374047 1145.58623,208.374047 L1143.40909,207.584475 L1149.66837,207.321284 Z" transform="rotate(180 575.856 104.67)"/>
      <path fill="url(#iceberg-l)" d="M198.739371,156.858551 C242.827737,147.910066 297.80212,110.010603 306.510933,115.274417 C349.238547,110.010603 413.738194,77.1117625 436.326678,61.0571285 C448.301296,52.3718348 467.079674,33.4221029 476.877089,26.5791442 C485.313751,20.5257577 489.123857,16.8410876 495.383316,24.4736185 C500.009873,30.2638143 505.997182,35.264438 511.44019,30.7901957 C515.794597,27.3687164 520.965455,22.3680927 525.047711,18.4202319 C530.218569,13.6827989 535.389426,8.68217529 541.104585,5.26069593 C543.009638,4.20793305 547.091894,6.83984025 548.724796,6.57664953 C550.629849,6.05026809 552.262752,4.73431449 553.895654,3.41836089 C558.250061,-0.792690635 559.338662,3.41836089 564.78167,11.5772732 C570.768979,20.2625669 578.661341,28.4214793 586.281553,33.9484844 C594.446065,40.0018709 602.882728,45.2656853 612.135841,42.8969689 C620.572504,40.7914431 630.369919,35.7908194 639.078732,32.6325308 C644.52174,30.527005 642.072386,35.5276287 657.58496,45.5288761 C660.850765,47.6344018 664.66087,51.8454533 668.198826,53.4245977 C672.553232,55.2669327 672.825382,50.5294997 676.907639,54.7405513 C687.249354,65.7945615 705.483431,72.9007109 718.546651,76.0589996 C733.514924,80.0068604 748.211046,81.5860047 763.451468,81.8491954 C776.786838,96.8510665 793.932314,96.324685 811.07779,95.7983036 L1148,208.443932 L323.656409,203.96969 L1.15817524,204.232881 C1.15817524,204.232881 154.651005,165.807035 198.739371,156.858551 Z" transform="rotate(180 574.58 105.103)"/>
      <path fill="url(#iceberg-n)" d="M1.15817524,205.812024 C5.24043124,200.285019 9.32268724,194.494823 12.8606422,188.967818 C14.4935452,186.599102 19.6644022,188.178246 23.2023582,186.599102 C26.1960122,184.230385 26.7403132,180.282525 27.8289152,176.597855 C28.3732152,175.01871 30.0061182,172.649994 31.9111712,172.649994 C38.7149312,172.649994 49.0566462,173.439566 52.5946022,161.859174 C54.2275042,154.753025 62.3920162,152.647499 67.0185732,146.330922 C67.0185732,146.330922 69.1957772,144.751777 68.1071752,143.172633 C65.9299722,140.803917 61.3034152,140.014344 62.9363172,136.066484 C63.4806182,133.697767 67.0185732,133.697767 67.0185732,128.960334 C53.9553542,131.329051 31.6390202,124.222901 35.9934272,102.641262 C36.5377282,98.6934019 43.8857892,100.272546 45.7908422,95.5351132 C48.5123462,89.2185359 52.0503012,83.1651494 55.5882562,76.8485721 C57.2211592,72.9007113 51.5060002,69.2160412 54.4996552,66.8473247 C56.1325572,63.6890361 59.1262122,61.3203196 60.7591142,59.2147939 C61.8477162,57.6356495 59.6705122,54.4773609 59.1262122,54.4773609 C53.4110532,52.8982166 48.2401952,53.6877887 43.0693372,50.5295001 C40.8921342,49.7399279 37.3541792,45.7920671 39.5313822,41.3178249 C45.7908422,30.5270054 58.3097602,34.2116755 61.8477162,25.0000003 C63.4806182,19.4729951 65.1135212,12.6300364 66.4742732,6.05026837 C67.5628742,5.52388693 68.3793252,4.47112405 69.4679272,3.68155189 C73.8223342,-0.529499631 74.9109352,3.68155189 80.3539432,11.8404642 C86.3412522,20.525758 94.2336142,28.6846703 101.853826,34.2116755 C110.018338,40.265062 118.455001,45.5288764 127.708114,43.1601599 C136.144777,41.0546342 145.942192,36.0540105 154.651005,32.8957219 C160.094013,30.7901961 157.644659,35.7908198 173.157233,45.7920671 C176.423038,47.8975929 180.233143,52.1086444 183.771099,53.6877887 C188.125505,55.5301238 188.397655,50.7926908 192.479912,55.0037423 C202.821627,66.0577526 221.055704,73.163902 234.118924,76.3221907 C249.087197,80.2700515 263.511168,81.8491958 278.751591,82.1123865 C292.086961,97.1142575 309.232437,96.5878761 326.650063,96.0614947 L663.572268,208.707122 L1.15817524,205.812024 Z" opacity=".3" transform="rotate(180 332.365 105.366)"/>
      <path fill="url(#iceberg-o)" d="M9.30046701,103.78482 C18.28143,93.5203824 13.110573,93.7835732 16.376377,86.1510423 C19.097882,80.6240372 20.186483,77.7289392 21.547235,75.097032 C22.907987,72.4651248 15.015625,73.254697 18.28143,70.0964084 C20.458634,67.9908826 22.635837,70.3595991 25.357341,66.674929 C26.173792,64.832594 30.528199,57.4632538 25.629491,55.0945373 C8.75616601,47.1988157 1.40810501,45.8828621 7.66756401,42.4613828 C10.661219,40.8822384 15.015625,38.7767127 19.914333,38.513522 C24.81304,38.2503312 23.180138,35.0920426 26.445943,30.8809911 C29.711747,26.9331303 27.534544,22.9852695 28.623146,15.87912 C29.439597,10.3521149 32.161101,11.9312592 32.161101,8.24658916 C32.161101,4.56191908 35.154756,2.71958404 32.705402,2.1932026 C35.426906,1.14043972 37.059808,5.08830052 41.686365,11.9312592 C47.673674,20.616553 55.566036,28.7754653 63.186248,34.3024704 C71.078609,40.0926663 78.970971,45.09329 87.951935,43.5141456 C76.793768,45.6196714 89.040536,46.935625 92.850642,45.8828621 C96.116447,45.09329 74.616565,55.357728 76.793768,57.7264445 C78.15452,59.3055888 85.230431,53.2522023 83.597528,57.9896352 C80.876024,66.4117383 66.996353,68.7804548 67.812805,72.2019341 C68.357105,74.3074599 71.895061,70.0964084 73.255813,70.8859805 C74.616565,71.9387434 72.439362,71.6755527 72.167211,76.9393671 C71.895061,81.9399908 62.369796,74.0442692 53.116683,80.6240372 C48.490126,83.7823258 63.730548,84.8350887 64.274849,89.0461402 C64.81915,93.2571917 63.730548,97.2050525 68.901406,95.0995268 C74.344414,92.7308103 78.698821,96.9418618 84.141829,96.9418618 C87.135484,96.9418618 90.945589,91.4148567 94.483545,92.4676196 C108.635366,97.2050525 102.920207,86.414233 113.261923,76.1497949 C116.799878,72.4651248 110.268268,68.7804548 114.622675,60.6215424 C120.609984,49.3043415 111.901171,48.77796 114.894825,42.9877642 C117.616329,37.7239498 114.622675,37.9871405 116.527728,36.4079962 C119.521382,34.3024704 118.977081,32.4601354 115.983427,32.7233261 C121.426435,30.6178004 118.977081,35.618424 134.489655,45.6196714 C137.75546,47.7251972 141.565565,51.9362487 145.103521,53.515393 C149.457927,55.357728 149.730077,50.6202951 153.812334,54.8313466 C164.154049,65.8853568 182.388126,72.9915063 195.451346,76.1497949 C210.419619,80.0976557 225.115741,81.6768 240.356163,81.9399908 C253.147233,96.4154804 269.476257,96.4154804 286.349582,95.8890989 L622.18319,209.061108 C599.32255,203.534103 230.286598,186.689897 222.666387,184.321181 C218.584131,182.478846 215.046175,177.741413 210.963919,178.794176 C181.843826,184.321181 158.983191,162.739542 131.22385,156.159774 C117.344179,152.475104 102.375906,156.159774 89.312687,157.212537 C74.072264,158.265299 61.281195,152.475104 47.401524,143.000238 C40.597764,138.262805 37.604109,135.894088 34.882605,131.419846 C30.528199,124.050506 27.262394,125.103269 22.363686,126.945604 C15.559926,129.840702 16.920678,119.576264 13.927024,117.470738 C10.661219,115.365212 7.12326401,116.417975 6.57896301,117.470738 C2.49670701,123.260934 2.76885701,111.680542 9.30046701,103.78482 Z" opacity=".3" transform="rotate(180 313.031 105.543)"/>
      <path fill="url(#iceberg-s)" d="M4.41350484,46.7837096 C5.77425684,44.9413746 6.86285884,47.0469003 7.40715984,42.0462767 C7.95146084,37.045653 10.9451148,42.3094674 13.9387698,40.7303231 C18.0210258,38.3616066 15.8438228,34.6769365 19.9260788,35.4665087 C22.9197328,37.045653 23.7361838,48.3628539 26.7298388,39.9407509 C29.7234928,31.5186479 29.4513428,26.7812149 28.9070418,22.0437819 C28.0905908,17.306349 20.1982288,31.5186479 16.9324238,27.8339778 C16.1159728,26.7812149 19.1096268,24.1493077 20.1982288,20.4646376 C21.2868308,17.0431583 20.7425298,12.568916 16.6602738,9.93700878 C12.3058668,7.30510158 11.4894158,8.62105518 9.31221284,8.09467378 C8.49576084,7.83148308 9.58436284,6.77872018 10.9451148,5.46276658 C11.7615658,4.67319438 10.4008138,1.77809648 10.9451148,2.04128718 C13.1223178,3.62043148 15.2995218,7.83148308 25.9133878,14.9376325 C29.1791928,17.0431583 32.9892978,21.2542098 36.5272538,22.8333541 C40.8816598,24.6756891 41.1538098,19.9382562 45.2360668,24.1493077 C55.5777818,35.2033179 73.8118588,42.3094674 86.8750788,45.467756 C101.843352,49.4156168 116.539474,50.9947611 131.779896,51.2579519 C144.570966,65.7334415 160.89999,65.7334415 177.773315,65.20706 L513.606923,178.379069 C490.746283,172.852064 121.710331,156.007858 114.09012,153.639142 C110.007864,151.796807 106.469908,147.059374 102.387652,148.112137 C73.2675588,153.639142 50.4069238,132.057503 22.6475828,125.477735 C42.7867128,130.215168 46.5968188,124.951353 47.1411188,119.950729 C47.4132698,114.950106 46.0525178,100.474616 45.5082168,94.4212303 C44.6917658,80.2089313 50.4069238,88.3678433 70.0017538,90.9997503 C82.7928228,99.9482353 90.9573348,96.0003743 101.299051,96.5267553 C111.640766,97.0531373 118.716677,94.4212303 110.280014,92.5788953 C101.571201,90.7365603 85.5143268,82.3144573 81.9763718,78.8929773 C78.4384158,75.4714983 79.5270178,71.7868283 75.4447618,72.8395913 C71.3625058,74.1555443 68.9131518,73.3659723 65.1030458,73.1027813 C61.0207898,72.8395913 65.9194978,78.6297863 68.6410018,80.2089313 C71.3625058,81.7880753 74.3561598,83.8936013 76.5333638,85.4727453 C82.7928228,90.2101783 85.7864768,93.1052763 74.6283108,87.8414623 C69.4574528,85.4727453 64.0144448,82.5776473 55.8499328,80.9985033 C49.0461718,78.6297863 47.9575708,83.1040293 41.6981108,78.3665963 C40.0652088,76.7874513 32.7171478,75.4714983 28.6348918,75.2083073 C19.3817778,74.6819263 19.6539278,66.5230136 13.9387698,62.5751528 C7.67930984,57.3113384 12.3058668,54.9426219 7.13500884,50.9947611 C4.41350484,50.4683797 3.05275284,48.6260447 4.41350484,46.7837096 Z" opacity=".3" transform="rotate(180 258.743 90.202)"/>
      <path fill="url(#iceberg-A)" d="M4.39193028,25.9359686 C6.29698328,25.6727779 7.11343428,29.6206387 7.65773528,24.8832058 C8.20203628,19.8825821 8.74633728,21.7249171 11.7399913,20.1457728 C15.8222473,17.7770563 16.3665483,14.0923862 17.9994503,15.6715306 C19.6323533,17.2506749 14.1893453,22.5144893 15.5500973,23.0408707 C16.6386983,23.5672522 18.2716013,24.8832058 17.4551503,26.4623501 C16.6386983,28.0414944 15.5500973,31.7261645 17.9994503,38.5691232 C19.3602023,42.2537933 17.9994503,33.8316902 20.9931053,31.7261645 C22.0817073,30.9365923 23.9867593,35.937216 26.1639633,35.937216 C29.7019183,35.6740253 34.8727763,31.9893552 37.5942803,29.8838294 C40.3157843,27.515113 37.5942803,25.1463965 40.3157843,23.3040614 C43.0372883,21.4617264 40.3157843,14.6187677 45.2144913,13.0396234 C50.1131993,11.7236698 24.5310603,1.19604105 30.2462193,2.51199465 C33.2398733,3.30156675 33.5120243,0.932850247 34.3284753,1.19604105 C38.6828813,3.03837605 38.9550323,-1.69905695 43.0372883,2.51199465 C53.3790043,13.5660048 71.6130813,20.6721542 84.6763003,23.8304429 C99.3724233,27.515113 113.796394,29.357448 128.764667,29.6206387 C142.100037,44.8857005 159.517663,44.0961283 177.207439,43.5697469 L511.680294,157.268138 C487.458904,151.741133 120.600154,132.001829 112.979943,129.896303 C108.897687,128.053968 104.815431,122.000581 100.733175,123.053344 C71.6130813,128.580349 48.2081463,110.683381 20.4488043,104.103613 C40.5879343,108.841045 49.2967473,106.209138 49.8410483,100.945324 C50.1131993,95.9447 47.3916953,82.521973 47.1195443,76.468587 C46.3030933,62.256288 50.9296503,71.731154 70.5244793,74.363061 C83.3155483,83.311546 99.6445733,79.100494 109.986288,79.626876 C120.328004,80.153257 123.865959,72.783917 115.157146,71.204772 C106.448333,69.362437 87.6699553,63.309051 83.8598493,59.887572 C80.3218943,56.466092 78.6889913,45.6752726 74.3345853,46.9912262 C70.2523293,48.30718 64.5371703,50.412706 60.4549143,50.149515 C56.3726583,49.886324 60.4549143,57.782046 63.1764183,59.36119 C65.8979223,60.940334 83.5876993,71.731154 72.4295323,66.46734 C67.2586743,64.098623 61.8156663,61.203525 53.6511543,59.624381 C46.8473943,57.255664 45.7587923,61.729907 39.4993333,56.992474 C37.8664303,55.413329 30.5183693,54.097376 26.4361133,53.834185 C17.1829993,53.307804 17.4551503,45.1488912 11.7399913,41.2010304 C5.48053228,35.937216 10.1070893,33.5684995 4.93623128,29.6206387 C2.75902828,28.0414944 3.03117828,26.1991594 4.39193028,25.9359686 Z" opacity=".3" transform="rotate(180 257.508 78.988)"/>
    </g>
  </g>
</svg>
